<?xml version="1.0" encoding="utf-8"?>
<!-- Generator: Adobe Illustrator 19.0.0, SVG Export Plug-In . SVG Version: 6.00 Build 0)  -->
<svg version="1.1" id="layer" xmlns="http://www.w3.org/2000/svg" xmlns:xlink="http://www.w3.org/1999/xlink" x="0px" y="0px"
	 viewBox="-153 -46 652 652" style="enable-background:new -153 -46 652 652;" xml:space="preserve">
<style type="text/css">
	.st0{fill:#001D37;}
	.st1{fill:#88BC47;}
</style>
<path class="st0" d="M53.5,306v-37.6h-7.1v-8.8h7.1v-3.7c0-9.7,5.8-14.4,15.3-14.4c2.9,0,5.5,0.4,8.2,1.3v9.1c-2-0.6-3.9-1.2-6-1.2
	c-4.4,0-6.1,1.5-6.1,5.9v2.9h10.5v8.8H64.9V306H53.5z M81.7,306v-46.4H93v3.1c2.7-2.3,6-3.8,10.2-3.8c1.7,0,3.2,0.4,4.8,0.8V270
	c-2-0.5-3.7-0.9-5.7-0.9c-4.5,0-7,1.4-9.2,3.2V306H81.7z M115.8,306h11.4v-46.4h-11.4V306z M121.5,254.8c-3.7,0-6.4-2.8-6.4-6.2
	c0-3.3,2.7-6.2,6.4-6.2c3.6,0,6.4,2.8,6.4,6.2C127.9,252,125.1,254.8,121.5,254.8L121.5,254.8z M158.8,306.7
	c-14.4,0-22.5-9-22.5-23.1c0-13.5,7.2-24.7,22.2-24.7c4.7,0,7.8,0.6,12.1,2.4v9.6c-4-1.8-6.7-2.8-11.1-2.8
	c-7.9,0-11.4,5.2-11.4,15.4c0,9.4,4.4,13.8,12,13.8c4.9,0,7.2-0.7,11.4-3.1v9.8C167.2,306,163.5,306.7,158.8,306.7 M194,297.7
	c2.9,0,5.3-1.1,6.8-2.4v-8.9c-0.7,0-1.7-0.1-2.4-0.1c-7.6,0-10.7,2-10.7,6C187.7,295.8,189.8,297.7,194,297.7 M210.8,306.7
	c-3.7,0-6.5-1.6-8.1-4.2c-2.5,2.3-6.6,4.2-11.5,4.2c-8.9,0-15.1-5.1-15.1-13.5c0-10.1,8.7-14.6,21.2-14.6c1.1,0,2.3,0,3.3,0.1v-1.8
	c0-5.9-2.2-8.6-8.1-8.6c-4.7,0-8.1,1.2-12.3,3.1v-9.7c4.5-1.8,9.1-2.8,14-2.8c10.7,0,17.8,5.4,17.8,16.4v19.5c0,2.3,0.8,2.7,2.2,2.7
	c0.4,0,0.8,0,1.1-0.1l1.2-0.2l0.4-0.1v8.3C214.8,306.3,213.5,306.7,210.8,306.7 M224.2,306v-46.4h11.2v2.6c2.6-1.6,6.4-3.3,11.3-3.3
	c11.7,0,15.7,7.4,15.7,16.7V306h-11.4V277c0-5.9-1.6-8.7-7.5-8.7c-3.1,0-6,1.3-8,2.6V306H224.2z M350.1,297.7c2.9,0,5.3-1.1,6.8-2.4
	v-8.9c-0.7,0-1.7-0.1-2.4-0.1c-7.6,0-10.7,2-10.7,6C343.8,295.8,345.9,297.7,350.1,297.7 M366.9,306.7c-3.7,0-6.5-1.6-8.1-4.2
	c-2.5,2.3-6.6,4.2-11.5,4.2c-8.9,0-15.1-5.1-15.1-13.5c0-10.1,8.7-14.6,21.2-14.6c1.1,0,2.3,0,3.3,0.1v-1.8c0-5.9-2.2-8.6-8.1-8.6
	c-4.7,0-8.1,1.2-12.3,3.1v-9.7c4.5-1.8,9.1-2.8,14-2.8c10.7,0,17.8,5.4,17.8,16.4v19.5c0,2.3,0.8,2.7,2.2,2.7c0.4,0,0.8,0,1.1-0.1
	l1.2-0.2l0.4-0.1v8.3C370.9,306.3,369.6,306.7,366.9,306.7 M380.3,306v-46.4h11.2v2.6c2.6-1.6,6.4-3.3,11.3-3.3
	c11.7,0,15.7,7.4,15.7,16.7V306h-11.4V277c0-5.9-1.6-8.7-7.5-8.7c-3.1,0-6,1.3-8,2.6V306H380.3z M464.2,306.3
	c-4.8,0-8.3-1.4-12.1-6.6l-10.8-14.1V306h-11.4v-63.7h11.4V277l14.3-17.5h12.9l-17.7,21l11.2,14.2c1.4,1.8,2.3,2.3,3.8,2.3
	c0.3,0,2.2-0.2,2.2-0.2v8.8C466.7,306.1,465.5,306.3,464.2,306.3 M301.4,268.1c7.2,0,10.3-3.2,10.3-8.9c0-4.9-3-8.2-10.2-8.2h-5.9
	v17.1H301.4z M301.7,296.5c7.4,0,11.1-3.4,11.1-9.7c0-6.5-3.5-10.1-10.9-10.1h-6.3v19.8H301.7z M303.3,306h-19.4v-64.4h18.8
	c13.5,0,20.8,6.6,20.8,16.6c0,6.4-3.5,11-7.9,13.3l-1.3,0.7l1.4,0.5c5.7,2.2,9.9,7,9.9,14.5C325.5,298.6,317,306,303.3,306
	L303.3,306z M3.4,306h-12l21.7-64.4h13.1l21,64.4H34.4l-3.8-13.1H7.4L3.4,306z M27.7,283l-8.4-28.8L10.4,283H27.7z"/>
<path id="Fill-15" class="st0" d="M-81.2,324.3c-16.4,0-27.5-3.3-34.4-6.5c-3.4-1.6-5.9-3.3-7.4-4.5c-1.5-1.2-2.2-2-2.2-2
	c-2.8-3-4.2-5.3-5.4-9.2c0,0-0.4-1-0.6-2.9c-0.3-2-0.5-4.8-0.2-8.6c0.6-7.5,3.2-18.6,11.4-32.7c10.1-17.2,20.4-25,26.9-28.5
	c-14,14.4-18.3,47.2-14.3,60.6c1.4,4.2,3.5,5.9,3.9,6.2c0.5,0.5,6.4,6.7,22.5,6.7c16.7,0,22.4-6.7,22.5-6.7c1.5-1.6,2.2-2.8,2.8-4.8
	c0-0.1,2.1-5.9-2.2-16.3c13.1,19,18.7,45.7-14.3,49C-75.1,324.2-78,324.3-81.2,324.3"/>
<path id="Fill-16" class="st1" d="M-79,252.6c-1.8-0.3-3.1-0.3-5,0.1c-0.1,0-8.8,1.6-17.1,15.9c-1.6,2.8-2.8,5.3-3.7,7.7
	c0.3-21.6,11.1-51.9,29-49.6c0,0,1,0.2,2.9,0.9c1.8,0.7,4.5,2,7.7,4.1c6.3,4.3,14.7,12.1,22.9,26.1c8.2,14.1,10.9,25.1,11.4,32.7
	c0.3,3.8,0.1,6.7-0.2,8.6c-0.3,1.9-0.6,2.9-0.6,2.9c-1.2,3.9-2.6,6.2-5.4,9.2c0,0-0.3,0.3-0.8,0.8c-0.5,0.5-1.4,1.2-2.5,2
	c-2,1.4-5.1,3.3-9.3,5c6.8-7,7.5-17.1,4.5-27.3c-5-17.2-20.8-36-32.3-38.8C-77.9,252.8-79,252.6-79,252.6"/>
</svg>
