<?xml version="1.0" encoding="utf-8"?>
<!-- Generator: Adobe Illustrator 26.0.3, SVG Export Plug-In . SVG Version: 6.00 Build 0)  -->
<svg version="1.0" id="Layer_1" xmlns="http://www.w3.org/2000/svg" xmlns:xlink="http://www.w3.org/1999/xlink" x="0px" y="0px"
	 viewBox="0 0 372.3 244.2" style="enable-background:new 0 0 372.3 244.2;" xml:space="preserve">
<style type="text/css">
	.st0{fill:#333334;}
	
		.st1{clip-path:url(#SVGID_00000170241238471214147710000015870900393618341292_);fill:url(#SVGID_00000075140198846025287440000007648997822218338749_);}
	
		.st2{clip-path:url(#SVGID_00000149378044364614490150000013448584208366420872_);fill:url(#SVGID_00000140005346232636815780000001302085413933321384_);}
	.st3{opacity:0.8;}
	.st4{clip-path:url(#SVGID_00000150792244885495271740000012092184495592121472_);}
	
		.st5{clip-path:url(#SVGID_00000083800386208995534740000002056991792796637109_);fill:url(#SVGID_00000129207097759722258520000014076440316532877501_);}
	.st6{clip-path:url(#SVGID_00000013903584759891585000000005023317709411375546_);}
	
		.st7{clip-path:url(#SVGID_00000017476562860627573700000009241566314895074695_);fill:url(#SVGID_00000096744235441260144820000012309261658611635891_);}
	.st8{clip-path:url(#SVGID_00000088127894719990653640000010673848309481054893_);}
	
		.st9{clip-path:url(#SVGID_00000020371814201727141510000003329383750761369508_);fill:url(#SVGID_00000065769282066171983410000013439950603404116918_);}
	.st10{clip-path:url(#SVGID_00000145748865235825138620000012816540164599351462_);}
	
		.st11{clip-path:url(#SVGID_00000018234066319748208790000004068222678651605663_);fill:url(#SVGID_00000106850034268747280020000002960047621516406952_);}
</style>
<g>
	<g>
		<path class="st0" d="M164,142.8c0-1.1-0.9-2.1-2.2-2.3h-3.7v4.5h3.3C162.9,145,164,144,164,142.8 M158.1,139.7h3.3
			c1.2,0,2.1-0.9,2.1-1.9c0-1.1-0.9-1.8-2.1-1.8h-3.3V139.7z M167,142.8c0,1.7-1.8,3.1-4.2,3.1H158l0,0h-2.9v-10.6h3h4.5
			c2.1,0,3.6,1,3.6,2.5c0,0.9-0.6,1.7-1.6,2.3C166,140.5,167,141.6,167,142.8 M199.3,145.9h3v-10.6h-3V145.9z M210.3,135.3h-1.9
			l-6,5.3c0,0,2.8,3.2,3.9,4.3c0.9,0.9,1.7,1,2.8,1h1.6l-5.6-6L210.3,135.3z M194.6,142l-7.8-6.7h-3.3v10.6h1.4v-8.2l9.5,8.2h1.7
			v-10.6h-1.4L194.6,142L194.6,142z M176.2,142.4l-2.4-3.8l-2.4,3.8H176.2z M174.6,135.1l6.9,10.8h-3.2l-1.7-2.8H171l-1.7,2.8h-1.4
			L174.6,135.1z M328.9,121.6c-0.9,1.3-2.3,2.4-3.9,3.2c-1.1,0.6-2.2,1-3.5,1.2c-0.9,0.2-1.9,0.3-2.8,0.3c-0.6,0-1.2,0-1.7-0.1
			c-5.4-0.5-8.7-3.7-8.7-9.2c0-6.2,4.1-9.9,10.6-9.9c3,0,5.8,0.8,8,2.9c0,0,0.4,0.4,1,0.6c0.3,0.1,0.6,0.1,1,0
			c0.3-0.1,0.7-0.3,1.1-0.7c0,0-0.1-0.2-0.3-0.3c-0.1-0.1-0.3-0.3-0.4-0.4L329,109c-3.1-2.8-7.2-3.6-11.3-3.6
			c-8.9,0-16.1,4.8-16.1,11.5c0,7,7.2,11.5,15.8,11.5c5.1,0,10.4-1.4,13.6-5.9L328.9,121.6z M180.4,122.4l-2.1-0.9
			c-0.9,1.3-2.3,2.4-3.9,3.2c-1.1,0.6-2.2,1-3.5,1.2c-0.9,0.2-1.9,0.3-2.8,0.3c-0.6,0-1.2,0-1.7-0.1c-5.4-0.5-8.7-3.7-8.7-9.2
			c0-6.2,4.1-9.9,10.6-9.9c3,0,5.8,0.8,8,2.9c0,0,0.4,0.4,1,0.6c0.3,0.1,0.6,0.1,1,0c0.3-0.1,0.7-0.3,1.1-0.7c0,0-0.1-0.2-0.3-0.3
			c-0.1-0.1-0.3-0.3-0.4-0.4l-0.3-0.2c-3.1-2.8-7.2-3.6-11.3-3.6c-8.9,0-16.1,4.8-16.1,11.5c0,7,7.2,11.5,15.8,11.5
			C171.9,128.3,177.3,127,180.4,122.4 M227.5,105.7H219l0,0h-6.1v22.2h6.4v-20.2h5.3c2.9,0,5.3,2.1,5.3,4.7s-2.4,4.7-5.3,4.7h-2.7
			h-0.6c-0.5,0-1,0.4-1,1v1h7.3c5,0,8.6-3.1,8.6-6.7C236.1,108.7,232.5,105.7,227.5,105.7 M278.7,127.9H298V126h-12.9v-9h12v-1.9
			h-12v-7.5H298v-1.9h-19.3L278.7,127.9L278.7,127.9z M209.1,127.9l-14.2-22.8l-13.7,22.8h3.3l8.8-15.1l3.6,6.2h-5.8
			c-0.3,0-0.6,0.2-0.8,0.4l-0.8,1.5h8.6l4.1,7C202.2,127.9,209.1,127.9,209.1,127.9z M251.2,105.7v2h8.5V128h6.3v-20.3h8.5v-2h-2.7
			H251.2z M240.7,105.7h6.4v22.2h-6.4V105.7z"/>
	</g>
	<g>
		<g>
			<defs>
				<path id="SVGID_1_" d="M75.8,98.6v13.8c0,4.9,4,8.9,8.9,8.9h17.1c6.1,0,11.1,5,11.1,11.2v13c11.9-2,21-11.7,21-23.2
					c0-13-11.4-23.6-25.4-23.6L75.8,98.6L75.8,98.6z"/>
			</defs>
			<clipPath id="SVGID_00000028307684185293296500000006797433929706290875_">
				<use xlink:href="#SVGID_1_"  style="overflow:visible;"/>
			</clipPath>
			
				<linearGradient id="SVGID_00000003817574776826286410000013153041542856382857_" gradientUnits="userSpaceOnUse" x1="-535.5135" y1="38.364" x2="-533.8234" y2="38.364" gradientTransform="matrix(7.8159 33.8544 -33.8544 7.8159 5582.6396 17922.9824)">
				<stop  offset="0" style="stop-color:#EF463F"/>
				<stop  offset="0.3293" style="stop-color:#E63E3D"/>
				<stop  offset="0.478" style="stop-color:#E0393B"/>
				<stop  offset="0.9699" style="stop-color:#C61431"/>
				<stop  offset="1" style="stop-color:#C41230"/>
			</linearGradient>
			
				<polygon style="clip-path:url(#SVGID_00000028307684185293296500000006797433929706290875_);fill:url(#SVGID_00000003817574776826286410000013153041542856382857_);" points="
				131,85.8 144.3,143 78.8,158.2 65.6,100.9 			"/>
		</g>
	</g>
	<g>
		<g>
			<defs>
				<path id="SVGID_00000069365285003606086570000002449117806782343854_" d="M43,122.4c0,13,11.4,23.6,25.4,23.6H104v-13.9
					c0-4.9-4-8.9-8.9-8.9H78c-6.1,0-11.1-4.9-11.1-11.1V98.8C53.6,99.5,43,109.9,43,122.4"/>
			</defs>
			<clipPath id="SVGID_00000165941295130924426840000010736183636458513075_">
				<use xlink:href="#SVGID_00000069365285003606086570000002449117806782343854_"  style="overflow:visible;"/>
			</clipPath>
			
				<linearGradient id="SVGID_00000154408512510708472460000001992908837793484712_" gradientUnits="userSpaceOnUse" x1="-533.4389" y1="42.0654" x2="-531.7469" y2="42.0654" gradientTransform="matrix(0 27.8953 -27.8953 0 1246.9282 14979.2383)">
				<stop  offset="0" style="stop-color:#00B6F1"/>
				<stop  offset="5.000310e-02" style="stop-color:#00B6F1"/>
				<stop  offset="6.886548e-02" style="stop-color:#00B1EB"/>
				<stop  offset="0.1996" style="stop-color:#0090C6"/>
				<stop  offset="0.3365" style="stop-color:#0076A7"/>
				<stop  offset="0.4791" style="stop-color:#00618F"/>
				<stop  offset="0.6301" style="stop-color:#00527E"/>
				<stop  offset="0.7951" style="stop-color:#004A74"/>
				<stop  offset="1" style="stop-color:#004771"/>
			</linearGradient>
			
				<rect x="43" y="98.8" style="clip-path:url(#SVGID_00000165941295130924426840000010736183636458513075_);fill:url(#SVGID_00000154408512510708472460000001992908837793484712_);" width="61" height="47.2"/>
		</g>
	</g>
	<g>
		<g class="st3">
			<g>
				<g>
					<defs>
						<rect id="SVGID_00000051354963999093294880000000232678195126677671_" x="74.2" y="109.9" width="40.6" height="24.2"/>
					</defs>
					<clipPath id="SVGID_00000059274694874860592270000003547889659740236967_">
						<use xlink:href="#SVGID_00000051354963999093294880000000232678195126677671_"  style="overflow:visible;"/>
					</clipPath>
					<g style="clip-path:url(#SVGID_00000059274694874860592270000003547889659740236967_);">
						<g>
							<defs>
								<path id="SVGID_00000017501673594911423480000007675563918494667960_" d="M75.8,111.5v0.8c0,4.9,4,8.9,8.9,8.9h17.1
									c6.1,0,11.1,5,11.1,11.2v-0.8c0-6.1-5-11.2-11.1-11.2h-17C79.9,120.4,75.8,116.5,75.8,111.5"/>
							</defs>
							<clipPath id="SVGID_00000083081015687564311490000012914175651632103327_">
								<use xlink:href="#SVGID_00000017501673594911423480000007675563918494667960_"  style="overflow:visible;"/>
							</clipPath>
							
								<linearGradient id="SVGID_00000037683275951200743750000006949909537636887713_" gradientUnits="userSpaceOnUse" x1="-537.9799" y1="48.1865" x2="-536.2886" y2="48.1865" gradientTransform="matrix(3.8156 16.527 -16.527 3.8156 2940.291 8815.3281)">
								<stop  offset="0" style="stop-color:#FFFFFF"/>
								<stop  offset="3.587209e-02" style="stop-color:#FDF6F7"/>
								<stop  offset="9.562216e-02" style="stop-color:#F6DCE0"/>
								<stop  offset="0.1719" style="stop-color:#ECB2BC"/>
								<stop  offset="0.2617" style="stop-color:#DE798A"/>
								<stop  offset="0.3617" style="stop-color:#CB304A"/>
								<stop  offset="0.4" style="stop-color:#C41230"/>
								<stop  offset="1" style="stop-color:#C41230"/>
							</linearGradient>
							
								<polygon style="clip-path:url(#SVGID_00000083081015687564311490000012914175651632103327_);fill:url(#SVGID_00000037683275951200743750000006949909537636887713_);" points="
								111.1,103.4 117.6,131.3 77.7,140.6 71.3,112.6 							"/>
						</g>
					</g>
				</g>
			</g>
		</g>
		<g>
			<g>
				<g>
					<defs>
						<rect id="SVGID_00000165951015327028236330000012911992020032588683_" x="111.3" y="120.1" width="24.3" height="27"/>
					</defs>
					<clipPath id="SVGID_00000172428923875223146900000015936388620995613619_">
						<use xlink:href="#SVGID_00000165951015327028236330000012911992020032588683_"  style="overflow:visible;"/>
					</clipPath>
					<g style="clip-path:url(#SVGID_00000172428923875223146900000015936388620995613619_);">
						<g>
							<defs>
								<path id="SVGID_00000065056419626184563080000011094181069701897090_" d="M134,121.8c-0.2,11.4-9.2,20.9-21,22.8v0.8
									c11.9-2,21-11.7,21-23.2C134,122,134,121.9,134,121.8"/>
							</defs>
							<clipPath id="SVGID_00000091732110768111654920000005786503033270180020_">
								<use xlink:href="#SVGID_00000065056419626184563080000011094181069701897090_"  style="overflow:visible;"/>
							</clipPath>
							
								<linearGradient id="SVGID_00000003093476204450909960000013834362634105440959_" gradientUnits="userSpaceOnUse" x1="-558.9905" y1="28.5321" x2="-557.2996" y2="28.5321" gradientTransform="matrix(12.3984 0 0 12.3984 7043.5889 -220.1523)">
								<stop  offset="0" style="stop-color:#C41230"/>
								<stop  offset="0.1044" style="stop-color:#C41230"/>
								<stop  offset="0.38" style="stop-color:#C41230"/>
								<stop  offset="0.5689" style="stop-color:#C51432"/>
								<stop  offset="0.6558" style="stop-color:#C61C38"/>
								<stop  offset="0.7218" style="stop-color:#CA2844"/>
								<stop  offset="0.7772" style="stop-color:#CE3B53"/>
								<stop  offset="0.8261" style="stop-color:#D45268"/>
								<stop  offset="0.8702" style="stop-color:#DB6F82"/>
								<stop  offset="0.9109" style="stop-color:#E492A0"/>
								<stop  offset="0.9489" style="stop-color:#EEBBC3"/>
								<stop  offset="0.9833" style="stop-color:#F9E7EA"/>
								<stop  offset="1" style="stop-color:#FFFFFF"/>
							</linearGradient>
							
								<rect x="113" y="121.8" style="clip-path:url(#SVGID_00000091732110768111654920000005786503033270180020_);fill:url(#SVGID_00000003093476204450909960000013834362634105440959_);" width="21" height="23.6"/>
						</g>
					</g>
				</g>
			</g>
		</g>
		<path d="M66.8,98.8c-10,0.6-18.4,6.5-22,14.8C48.4,105.3,56.9,99.4,66.8,98.8v0.8l0,0V98.8z"/>
		<g>
			<g>
				<g>
					<defs>
						<rect id="SVGID_00000060025044111830664800000007293024012420236172_" x="41.3" y="97.1" width="27.2" height="27.3"/>
					</defs>
					<clipPath id="SVGID_00000101800082877681102060000011447126114131920523_">
						<use xlink:href="#SVGID_00000060025044111830664800000007293024012420236172_"  style="overflow:visible;"/>
					</clipPath>
					<g style="clip-path:url(#SVGID_00000101800082877681102060000011447126114131920523_);">
						<g>
							<defs>
								<path id="SVGID_00000036940829952063970720000011734060315939552131_" d="M66.8,98.8c-10,0.6-18.4,6.5-22,14.8
									c-1.2,2.7-1.8,5.7-1.8,8.8c0,0.1,0,0.3,0,0.4c0.2-12.4,10.7-22.5,23.8-23.2V98.8z"/>
							</defs>
							<clipPath id="SVGID_00000169558392157968054430000007351569457309321623_">
								<use xlink:href="#SVGID_00000036940829952063970720000011734060315939552131_"  style="overflow:visible;"/>
							</clipPath>
							
								<linearGradient id="SVGID_00000098939624858558540130000006302616267489478315_" gradientUnits="userSpaceOnUse" x1="-532.4347" y1="5.1762" x2="-530.7438" y2="5.1762" gradientTransform="matrix(0 -14.1586 14.1586 0 -18.3882 -7415.8037)">
								<stop  offset="0" style="stop-color:#FFFFFF"/>
								<stop  offset="1" style="stop-color:#FFFFFF"/>
							</linearGradient>
							
								<rect x="43" y="98.8" style="clip-path:url(#SVGID_00000169558392157968054430000007351569457309321623_);fill:url(#SVGID_00000098939624858558540130000006302616267489478315_);" width="23.8" height="23.9"/>
						</g>
					</g>
				</g>
			</g>
		</g>
		<path d="M66.8,112.1v0.2c0.1,6.1,5.1,10.9,11.1,10.9H95c4.9,0,8.9,4,8.9,8.9v0.6c0,0.1,0,0.1,0,0.2v-0.8c0-4.9-4-8.9-8.9-8.9H78
			C71.8,123.2,66.8,118.2,66.8,112.1"/>
		<g class="st3">
			<g>
				<g>
					<defs>
						<rect id="SVGID_00000080175880278964667890000004923886310960380553_" x="65.1" y="110.6" width="40.5" height="23.8"/>
					</defs>
					<clipPath id="SVGID_00000014625894665029591300000010793461108934699161_">
						<use xlink:href="#SVGID_00000080175880278964667890000004923886310960380553_"  style="overflow:visible;"/>
					</clipPath>
					<g style="clip-path:url(#SVGID_00000014625894665029591300000010793461108934699161_);">
						<g>
							<defs>
								<path id="SVGID_00000136406160455293666520000014898608374148856511_" d="M66.8,112.3v0.6c0,6.1,5,11.1,11.1,11.1H95
									c4.8,0,8.8,3.9,8.9,8.8v-0.7c0-4.9-4-8.9-8.9-8.9H78C71.9,123.2,66.9,118.3,66.8,112.3"/>
							</defs>
							<clipPath id="SVGID_00000157283617198087740610000016913298243270752925_">
								<use xlink:href="#SVGID_00000136406160455293666520000014898608374148856511_"  style="overflow:visible;"/>
							</clipPath>
							
								<linearGradient id="SVGID_00000093174076126415363730000002241243917136880564_" gradientUnits="userSpaceOnUse" x1="-548.4817" y1="28.6717" x2="-546.7916" y2="28.6717" gradientTransform="matrix(21.9516 0 0 21.9516 12106.9023 -506.8893)">
								<stop  offset="0" style="stop-color:#004771"/>
								<stop  offset="0.1431" style="stop-color:#044A73"/>
								<stop  offset="0.271" style="stop-color:#0E5179"/>
								<stop  offset="0.3932" style="stop-color:#215F83"/>
								<stop  offset="0.5118" style="stop-color:#3A7192"/>
								<stop  offset="0.6279" style="stop-color:#5C89A4"/>
								<stop  offset="0.742" style="stop-color:#84A6BB"/>
								<stop  offset="0.8546" style="stop-color:#B4C9D6"/>
								<stop  offset="0.9633" style="stop-color:#EBF0F4"/>
								<stop  offset="1" style="stop-color:#FFFFFF"/>
							</linearGradient>
							
								<rect x="66.8" y="112.3" style="clip-path:url(#SVGID_00000157283617198087740610000016913298243270752925_);fill:url(#SVGID_00000093174076126415363730000002241243917136880564_);" width="37.1" height="20.4"/>
						</g>
					</g>
				</g>
			</g>
		</g>
	</g>
</g>
</svg>
