<?xml version="1.0" encoding="utf-8"?>
<!-- Generator: Adobe Illustrator 19.2.1, SVG Export Plug-In . SVG Version: 6.00 Build 0)  -->
<svg version="1.1" id="layer" xmlns="http://www.w3.org/2000/svg" xmlns:xlink="http://www.w3.org/1999/xlink" x="0px" y="0px"
	 viewBox="0 0 652 652" style="enable-background:new 0 0 652 652;" xml:space="preserve">
<style type="text/css">
	.st0{fill:#006341;}
</style>
<path class="st0" d="M507.8,499.8h20.2v76.9h-24.3l-30.7-46.2v46.2h-20.2v-76.9h24.3l30.7,46.6V499.8z M417.4,499.8l29,76.9h-21.3
	l-5.7-15.2h-32.7l-5.7,15.2h-20.2l28.7-76.9H417.4z M413.7,546l-10.1-26.7h-1L392.4,546H413.7z M584.4,535.5l30.4-35.8h-25.7l-26,31
	v-31h-20.2v76.9h20.2v-35.1l27.7,35.1h26L584.4,535.5z M90.5,546.3l-30.7-46.6H35.5v76.9h20.2v-46.2l30.7,46.2h24.3v-76.9H90.5
	V546.3z M341.8,536.2c9.1,1.4,16.5,6.4,16.5,19.6c0,15.5-8.8,20.9-27,20.9h-43.2v-76.9h41.5c17.5,0,26.3,6.1,26.3,20.6
	C356,529.1,349.9,535.2,341.8,536.2 M308.4,529.8h16.9c7.1,0,8.4-2.7,8.4-6.7c0-4-1.3-7.1-8.4-7.1h-16.9V529.8z M327.7,560.5
	c7.1,0,8.4-3,8.4-7.1c0-4-2-7.4-8.4-7.4h-19.2v14.5H327.7 M239.6,499.8c25.3,0,38.1,10.8,38.1,38.5c0,27-12.5,38.5-38.1,38.5h-37.8
	v-76.9H239.6 M237.9,560.5c9.8,0,17.5-4.7,17.5-22.3c0-17.5-7.8-22.3-17.5-22.3h-15.9v44.5H237.9 M125.6,576.7H187v-16.2h-41.2V546
	h34.4v-16.2h-34.4v-13.8H187v-16.2h-61.4V576.7z"/>
<path class="st0" d="M412.3,212.5V97.9l65.9,44.6v205.9L172,144.6l70.2-46.7L412.3,212.5z M497.3,134l-85-57.3l-85,57.3l-85.1-57.3
	L155,134v227.1l87.2,57.3l85.1-57.3l85,57.3l85-57.3V134z M242.2,303.8l68,46.7l-68,46.7V303.8z"/>
</svg>
